<?xml version="1.0" standalone="no"?>
<!DOCTYPE svg PUBLIC "-//W3C//DTD SVG 20010904//EN"
 "http://www.w3.org/TR/2001/REC-SVG-20010904/DTD/svg10.dtd">
<svg version="1.0" xmlns="http://www.w3.org/2000/svg"
 width="326.000000pt" height="326.000000pt" viewBox="0 0 326.000000 326.000000"
 preserveAspectRatio="xMidYMid meet">
<metadata>
Created by potrace 1.14, written by Peter Selinger 2001-2017
</metadata>
<g transform="translate(0.000000,326.000000) scale(0.100000,-0.100000)"
fill="#000000" stroke="none">
<path d="M1680 3120 l-315 -5 -3 -22 c-3 -23 -2 -23 110 -23 210 -1 229 -13
236 -159 l5 -101 -754 -2 -754 -3 -7 -65 c-9 -79 -38 -484 -38 -523 0 -27 2
-28 43 -25 l42 3 12 101 c31 268 106 369 302 409 79 16 410 30 475 21 l46 -7
-1 -1287 c0 -970 -3 -1296 -12 -1322 -20 -59 -56 -70 -234 -70 -146 0 -153 -1
-153 -20 0 -20 7 -20 580 -20 565 0 580 0 580 19 0 18 -10 20 -175 23 -173 3
-175 3 -201 29 -35 36 -43 84 -44 276 l0 163 507 2 c455 3 508 5 511 19 2 14
-18 17 -155 22 -87 3 -172 11 -190 17 -68 24 -63 -48 -64 1082 0 831 3 1022
13 1020 29 -7 91 -58 117 -96 48 -72 68 -145 87 -328 l5 -58 39 0 c21 0 41 3
43 8 2 4 -4 111 -14 237 -9 127 -19 262 -22 300 l-4 70 -130 3 -130 3 -7 52
c-7 54 -51 157 -67 157 -5 0 -9 5 -9 11 0 18 477 5 560 -15 148 -35 255 -91
327 -171 70 -77 118 -185 127 -286 3 -43 5 -44 40 -47 25 -2 36 1 36 10 -1 54
-61 532 -69 547 -29 52 -377 66 -1291 51z m8 -396 l22 -6 0 -1029 c0 -917 -2
-1033 -16 -1068 -20 -50 -45 -59 -174 -63 l-95 -3 -3 1079 c-2 857 0 1081 10
1088 15 9 222 11 256 2z"/>
</g>
</svg>
