<?xml version="1.0" standalone="no"?>
<!DOCTYPE svg PUBLIC "-//W3C//DTD SVG 20010904//EN"
 "http://www.w3.org/TR/2001/REC-SVG-20010904/DTD/svg10.dtd">
<svg version="1.0" xmlns="http://www.w3.org/2000/svg"
 width="326.000000pt" height="326.000000pt" viewBox="0 0 326.000000 326.000000"
 preserveAspectRatio="xMidYMid meet">
<metadata>
Created by potrace 1.14, written by Peter Selinger 2001-2017
</metadata>
<g transform="translate(0.000000,326.000000) scale(0.100000,-0.100000)"
fill="#000000" stroke="none">
<path d="M1493 3113 c-125 -3 -133 -5 -133 -23 0 -19 7 -20 123 -20 207 0 222
-12 222 -169 l0 -96 -752 -3 -753 -2 0 -28 c0 -15 -9 -139 -20 -277 -26 -329
-29 -297 22 -293 l43 3 11 95 c32 264 94 352 282 402 66 17 111 20 307 21
l230 2 3 -1285 c2 -910 0 -1296 -8 -1323 -20 -67 -49 -77 -232 -77 -151 0
-158 -1 -158 -20 0 -20 7 -20 581 -20 547 0 580 1 577 17 -3 16 -22 19 -174
23 -204 6 -217 11 -233 93 -7 30 -10 124 -9 217 l3 165 503 3 c411 2 502 5
502 16 0 10 -36 14 -159 19 -170 6 -208 16 -233 60 -10 17 -14 236 -16 1045
-1 562 0 1022 3 1022 21 0 88 -46 118 -80 45 -53 74 -130 88 -238 23 -173 20
-166 62 -170 36 -3 37 -2 37 30 0 61 -31 502 -38 541 l-7 39 -130 1 -130 2 -6
60 c-7 67 -27 123 -52 144 -10 7 -17 17 -17 22 0 16 416 11 511 -6 163 -29
266 -74 356 -158 75 -71 116 -148 141 -265 l17 -82 33 0 33 0 -5 43 c-4 23
-18 140 -32 260 -13 120 -30 229 -36 242 -13 28 -34 33 -198 45 -113 9 -953
10 -1277 3z m215 -1423 c2 -941 1 -1038 -14 -1072 -21 -47 -44 -55 -171 -63
l-103 -7 0 1084 c0 597 3 1088 7 1092 4 3 68 5 142 4 l136 -3 3 -1035z"/>
</g>
</svg>
